<?xml version="1.0" encoding="utf-8"?>
<!-- Generator: Adobe Illustrator 25.0.1, SVG Export Plug-In . SVG Version: 6.00 Build 0)  -->
<svg version="1.1" xmlns="http://www.w3.org/2000/svg" xmlns:xlink="http://www.w3.org/1999/xlink" x="0px" y="0px"
	 viewBox="0 0 128 128" style="enable-background:new 0 0 128 128;" xml:space="preserve">
<style type="text/css">
	.st0{display:none;}
	.st1{fill:#FFFFFF;}
</style>
<g id="Слой_1" class="st0">
	
		<image style="display:inline;overflow:visible;" width="538" height="526" xlink:href="F118A901.jpg"  transform="matrix(0.2702 0 0 0.2702 -4.7851 -12.0799)">
	</image>
</g>
<g id="Слой_4">
	<path class="st1" d="M47.8,53.8c-3.7-0.4-11.9-1.7-18.7-8.3c-8.5-8.3-13.3-23.7-7-30.5c1.2-1.3,4.1-3.7,10.8-3.7c0.2,2,0.5,4,0.7,6
		c-4.4-0.5-6.3,0.8-7.1,1.7c-4.4,4.3-0.5,16.6,6.7,23.3c3.9,3.7,8.2,5.2,10.8,5.9C45.3,50.1,46.5,52,47.8,53.8z"/>
	<path class="st1" d="M80.2,53.8c3.7-0.4,11.9-1.7,18.7-8.3c8.5-8.3,13.3-23.7,7-30.5c-1.2-1.3-4.1-3.7-10.8-3.7c-0.2,2-0.5,4-0.7,6
		c4.4-0.5,6.3,0.8,7.1,1.7c4.4,4.3,0.5,16.6-6.7,23.3c-3.9,3.7-8.2,5.2-10.8,5.9C82.7,50.1,81.5,52,80.2,53.8z"/>
</g>
<g id="Слой_6">
	<path class="st1" d="M63.9,99.7c5,0,9.9,0.1,14.9,0.1c2.5,2.3,5.1,4.6,7.6,6.9c0.1,4.9,0.2,9.8,0.3,14.6c0.5,0.1,0.9,0.3,1.4,0.4
		c0,1.1,0,2.2,0,3.3c-8,0-15.9,0-23.9,0"/>
	<path class="st1" d="M64.1,99.5c-5,0-10,0-15,0c-2.6,2.3-5.1,4.7-7.7,7c-0.1,4.9-0.2,9.8-0.3,14.7c-0.5,0.1-0.9,0.3-1.4,0.4
		c0,1.1,0,2.2,0,3.4c8.2,0,16.3,0,24.5,0"/>
</g>
<g id="Слой_5">
</g>
<g id="Слой_2">
	<path class="st1" d="M32.5,2.9c21,0,42,0,63,0C95.1,39.7,77.1,64.4,64,64.4C51,64.4,33,39.7,32.5,2.9z"/>
</g>
<g id="Слой_3">
	<path class="st1" d="M49.2,99.6c9.9,0.1,19.8,0.1,29.7,0.2c-4-6.1-8.9-15.5-10.8-27.8c-0.5-3.1-0.7-6-0.7-8.8c-2.2,0-4.4,0-6.6,0
		c0,2.7-0.2,5.6-0.7,8.6C58.2,84.2,53.2,93.6,49.2,99.6z"/>
</g>
</svg>
